<?xml version="1.0" encoding="utf-8"?>
<!-- Generator: Adobe Illustrator 26.1.0, SVG Export Plug-In . SVG Version: 6.00 Build 0)  -->
<svg version="1.1" id="Layer_1" xmlns="http://www.w3.org/2000/svg" xmlns:xlink="http://www.w3.org/1999/xlink" x="0px" y="0px"
	 viewBox="0 0 506.08 625.13" style="enable-background:new 0 0 506.08 625.13;" xml:space="preserve">
<style type="text/css">
	.st0{fill:url(#SVGID_1_);}
	.st1{fill:url(#SVGID_00000008136483799829354540000013836771084537076101_);}
	.st2{fill:url(#SVGID_00000060720779118227567510000005998951389390289553_);}
	.st3{opacity:0.5;fill:url(#SVGID_00000173871490395239819870000011354916288134013103_);}
	.st4{opacity:0.5;fill:#616A6F;}
	.st5{opacity:0.5;fill:url(#SVGID_00000004516993251463519710000001970804499190226057_);}
	.st6{opacity:0.5;fill:url(#SVGID_00000183937829885021592860000017811711819407287425_);}
	.st7{fill:url(#SVGID_00000169534875606962689630000012227805687565658544_);}
	.st8{fill:url(#SVGID_00000068650240090132135250000013453656022045220780_);}
	.st9{fill:url(#SVGID_00000036239321696596846180000007025065974738976670_);}
	.st10{opacity:0.5;fill:url(#SVGID_00000116934665137117767220000016567264958269120935_);}
	.st11{opacity:0.5;fill:url(#SVGID_00000093894965579703723460000002027456169356624788_);}
	.st12{opacity:0.5;fill:url(#SVGID_00000153684787900135027730000016053207283499281799_);}
	.st13{fill:#16528E;}
	.st14{fill:#3D4B56;}
	.st15{fill:#FFFFFF;}
</style>
<g>
	<linearGradient id="SVGID_1_" gradientUnits="userSpaceOnUse" x1="118.2116" y1="313.0464" x2="320.8507" y2="28.0154">
		<stop  offset="5.072736e-09" style="stop-color:#486273"/>
		<stop  offset="1" style="stop-color:#AFB4B8"/>
	</linearGradient>
	<path class="st0" d="M341.45,136.57c-48.47,28.02-105.07,67.22-161.28,121.74c-22.31,21.64-41.96,43.17-59.23,63.92
		c-0.58-1.89-1.15-3.79-1.69-5.7c-6.56-23.11-17.82-64.68-5.15-113.89c20.03-77.78,86.08-120.6,109.12-135.83
		c32.71-21.63,63.89-32.3,85.36-37.86L341.45,136.57z"/>
	
		<linearGradient id="SVGID_00000128444139166329338540000003196792174643750322_" gradientUnits="userSpaceOnUse" x1="256.5346" y1="208.2447" x2="383.4624" y2="624.657">
		<stop  offset="5.072736e-09" style="stop-color:#486273"/>
		<stop  offset="1" style="stop-color:#7FB5E1"/>
	</linearGradient>
	<path style="fill:url(#SVGID_00000128444139166329338540000003196792174643750322_);" d="M484.5,604.95
		c-22.6-6.07-59.48-17.3-102.44-37.11c-31.36-14.46-93.39-43.06-150.42-90.05c19.5-33.39,39.1-70.66,57.64-111.85
		c30.04-66.73,50.92-129.57,65.63-185.31L484.5,604.95z"/>
	
		<linearGradient id="SVGID_00000146491414928133589780000006669709430032467074_" gradientUnits="userSpaceOnUse" x1="26.0391" y1="601.9418" x2="337.7917" y2="183.3027">
		<stop  offset="0" style="stop-color:#367EB8"/>
		<stop  offset="1" style="stop-color:#ADD6EC"/>
	</linearGradient>
	<path style="fill:url(#SVGID_00000146491414928133589780000006669709430032467074_);" d="M22.12,597.53
		c0.31-16.01,1.84-39,7.63-65.88c4.04-18.72,20.8-88.74,107.42-190.2c38.08-44.61,99.61-106.95,190.76-164.78
		c-11.14,46.93-50.77,201.93-134.6,314.72c-62.23,83.73-114.79,98.43-133.36,102.43C44.51,597.15,31.24,597.66,22.12,597.53z"/>
	
		<linearGradient id="SVGID_00000099630679994394224530000004750409891843004592_" gradientUnits="userSpaceOnUse" x1="156.217" y1="123.0202" x2="169.5778" y2="265.5357">
		<stop  offset="0" style="stop-color:#5F686D"/>
		<stop  offset="1" style="stop-color:#2E353B"/>
	</linearGradient>
	<path style="opacity:0.5;fill:url(#SVGID_00000099630679994394224530000004750409891843004592_);" d="M225.5,217.58
		c-15.01,12.52-30.15,26.07-45.27,40.73c-22.31,21.64-41.96,43.17-59.23,63.92c-0.58-1.89-1.15-3.79-1.69-5.7
		c-2.75-9.7-6.33-22.66-8.62-38.06c-3.17-21.3-3.88-47.27,3.47-75.83c16.72-64.92,65.5-105.48,94.57-125.98
		c-4.29,38.98,1.91,79.88,8.35,108.76C220.23,199.57,223.44,210.84,225.5,217.58z"/>
	<path class="st4" d="M341.39,136.64c-35.4,20.47-75.14,46.92-115.89,80.94c-15.01,12.52-30.15,26.07-45.27,40.73
		c-22.31,21.64-41.96,43.17-59.23,63.92c-0.58-1.89-1.15-3.79-1.69-5.7c-2.75-9.7-6.33-22.66-8.62-38.06
		c11.69-18.46,41.91-57.17,106.39-93.05C249.3,167.49,290.08,150.27,341.39,136.64z"/>
	
		<linearGradient id="SVGID_00000044862457120656767740000016743251031063522988_" gradientUnits="userSpaceOnUse" x1="231.7012" y1="489.422" x2="484.5612" y2="489.422">
		<stop  offset="0" style="stop-color:#2F4552"/>
		<stop  offset="1" style="stop-color:#7FB5E1"/>
	</linearGradient>
	<path style="opacity:0.5;fill:url(#SVGID_00000044862457120656767740000016743251031063522988_);" d="M484.56,604.95
		c-22.6-6.07-59.48-17.3-102.44-37.11c-19.77-9.12-51.73-23.86-86.94-45.27c-20.64-12.56-42.4-27.41-63.48-44.78
		c18.24-31.23,36.56-65.84,54.02-103.89c11.95,29.05,24.77,53.81,36.71,74.21c6.25,10.67,12.25,20.16,17.75,28.43
		c25.86,38.85,50.88,75.61,97.45,105.03c16.49,10.41,34.89,18.47,46.87,23.19L484.56,604.95z"/>
	
		<linearGradient id="SVGID_00000163040505862341580770000014895976421356577960_" gradientUnits="userSpaceOnUse" x1="369.2541" y1="183.7395" x2="262.3675" y2="507.7395">
		<stop  offset="0" style="stop-color:#2F4552"/>
		<stop  offset="1" style="stop-color:#7FB5E1"/>
	</linearGradient>
	<path style="opacity:0.5;fill:url(#SVGID_00000163040505862341580770000014895976421356577960_);" d="M339.07,384.5
		c-4.87,22.57-10.53,43.78-16.64,63.61c-8.5,27.58-17.88,52.47-27.25,74.46c-20.64-12.56-42.4-27.41-63.48-44.78
		c18.24-31.23,36.56-65.84,54.02-103.89c1.21-2.64,2.42-5.29,3.62-7.96c30.04-66.73,50.92-129.57,65.63-185.31l0.14,0.46
		C357.45,233.95,355.43,308.66,339.07,384.5z"/>
</g>
</svg>
